<svg width="715" height="63" viewBox="0 0 715 63" fill="none" xmlns="http://www.w3.org/2000/svg">
<rect x="0.5" y="0.5" width="714" height="62" rx="7.5" fill="white"/>
<rect x="0.5" y="0.5" width="714" height="62" rx="7.5" stroke="#D9D9D9"/>
<path d="M32.7443 28.1818C32.6676 27.5341 32.3565 27.0312 31.8111 26.6733C31.2656 26.3153 30.5966 26.1364 29.804 26.1364C29.2244 26.1364 28.7173 26.2301 28.2827 26.4176C27.8523 26.6051 27.5156 26.8629 27.2727 27.1911C27.0341 27.5192 26.9148 27.892 26.9148 28.3097C26.9148 28.6591 26.9979 28.9595 27.1641 29.2109C27.3345 29.4581 27.5518 29.6648 27.8161 29.831C28.0803 29.9929 28.3572 30.1271 28.647 30.2337C28.9368 30.3359 29.2031 30.419 29.446 30.483L30.7756 30.8409C31.1165 30.9304 31.4957 31.054 31.9134 31.2116C32.3352 31.3693 32.7379 31.5845 33.1214 31.8572C33.5092 32.1257 33.8288 32.4709 34.0803 32.8928C34.3317 33.3146 34.4574 33.8324 34.4574 34.446C34.4574 35.1534 34.272 35.7926 33.9013 36.3636C33.5348 36.9347 32.9979 37.3885 32.2905 37.7251C31.5874 38.0618 30.733 38.2301 29.7273 38.2301C28.7898 38.2301 27.978 38.0788 27.2919 37.7763C26.6101 37.4737 26.0732 37.0518 25.6811 36.5107C25.2933 35.9695 25.0739 35.3409 25.0227 34.625H26.6591C26.7017 35.1193 26.8679 35.5284 27.1577 35.8523C27.4517 36.1719 27.8224 36.4105 28.2699 36.5682C28.7216 36.7216 29.2074 36.7983 29.7273 36.7983C30.3324 36.7983 30.8757 36.7003 31.3572 36.5043C31.8388 36.304 32.2202 36.027 32.5014 35.6733C32.7827 35.3153 32.9233 34.8977 32.9233 34.4205C32.9233 33.9858 32.8018 33.6321 32.5589 33.3594C32.3161 33.0866 31.9964 32.8651 31.6001 32.6946C31.2038 32.5241 30.7756 32.375 30.3153 32.2472L28.7045 31.7869C27.6818 31.4929 26.8722 31.0732 26.2756 30.5277C25.679 29.9822 25.3807 29.2685 25.3807 28.3864C25.3807 27.6534 25.5788 27.0142 25.9751 26.4688C26.3757 25.919 26.9126 25.4929 27.5859 25.1903C28.2635 24.8835 29.0199 24.7301 29.8551 24.7301C30.6989 24.7301 31.4489 24.8814 32.1051 25.1839C32.7614 25.4822 33.2813 25.8913 33.6648 26.4112C34.0526 26.9311 34.2571 27.5213 34.2784 28.1818H32.7443ZM40.7942 38.2045C39.8482 38.2045 39.0321 37.9957 38.346 37.5781C37.6642 37.1562 37.1379 36.5682 36.7672 35.8139C36.4007 35.0554 36.2175 34.1733 36.2175 33.1676C36.2175 32.1619 36.4007 31.2756 36.7672 30.5085C37.1379 29.7372 37.6535 29.1364 38.3141 28.706C38.9788 28.2713 39.7544 28.054 40.6408 28.054C41.1521 28.054 41.6571 28.1392 42.1557 28.3097C42.6543 28.4801 43.1081 28.7571 43.5172 29.1406C43.9263 29.5199 44.2523 30.0227 44.4952 30.6491C44.7381 31.2756 44.8595 32.0469 44.8595 32.9631V33.6023H37.2913V32.2983H43.3254C43.3254 31.7443 43.2146 31.25 42.993 30.8153C42.7757 30.3807 42.4646 30.0376 42.0598 29.7862C41.6592 29.5348 41.1862 29.4091 40.6408 29.4091C40.0399 29.4091 39.52 29.5582 39.0811 29.8565C38.6464 30.1506 38.3119 30.5341 38.0776 31.0071C37.8432 31.4801 37.726 31.9872 37.726 32.5284V33.3977C37.726 34.1392 37.8538 34.7678 38.1095 35.2834C38.3695 35.7947 38.7295 36.1847 39.1898 36.4531C39.65 36.7173 40.1848 36.8494 40.7942 36.8494C41.1905 36.8494 41.5484 36.794 41.868 36.6832C42.1919 36.5682 42.471 36.3977 42.7054 36.1719C42.9398 35.9418 43.1209 35.6562 43.2487 35.3153L44.7061 35.7244C44.5527 36.2188 44.2949 36.6534 43.9327 37.0284C43.5705 37.3991 43.123 37.6889 42.5903 37.8977C42.0577 38.1023 41.4589 38.2045 40.7942 38.2045ZM49.862 38.2301C49.2398 38.2301 48.6752 38.1129 48.1681 37.8786C47.661 37.6399 47.2583 37.2969 46.96 36.8494C46.6617 36.3977 46.5125 35.8523 46.5125 35.2131C46.5125 34.6506 46.6233 34.1946 46.8449 33.8452C47.0665 33.4915 47.3627 33.2145 47.7334 33.0142C48.1042 32.8139 48.5132 32.6648 48.9607 32.5668C49.4124 32.4645 49.8662 32.3835 50.3222 32.3239C50.9188 32.2472 51.4024 32.1896 51.7732 32.1513C52.1482 32.1087 52.4209 32.0384 52.5914 31.9403C52.7661 31.8423 52.8534 31.6719 52.8534 31.429V31.3778C52.8534 30.7472 52.6809 30.2571 52.3357 29.9077C51.9948 29.5582 51.477 29.3835 50.7824 29.3835C50.0622 29.3835 49.4976 29.5412 49.0885 29.8565C48.6794 30.1719 48.3918 30.5085 48.2256 30.8665L46.7938 30.3551C47.0495 29.7585 47.3904 29.294 47.8165 28.9616C48.2469 28.625 48.7157 28.3906 49.2228 28.2585C49.7341 28.1222 50.237 28.054 50.7313 28.054C51.0466 28.054 51.4088 28.0923 51.8179 28.169C52.2313 28.2415 52.6297 28.3928 53.0132 28.6229C53.401 28.853 53.7228 29.2003 53.9784 29.6648C54.2341 30.1293 54.362 30.7514 54.362 31.5312V38H52.8534V36.6705H52.7767C52.6745 36.8835 52.504 37.1115 52.2654 37.3544C52.0267 37.5973 51.7093 37.804 51.313 37.9744C50.9167 38.1449 50.433 38.2301 49.862 38.2301ZM50.0921 36.875C50.6887 36.875 51.1915 36.7578 51.6006 36.5234C52.014 36.2891 52.325 35.9865 52.5338 35.6158C52.7469 35.245 52.8534 34.8551 52.8534 34.446V33.0653C52.7895 33.142 52.6489 33.2124 52.4316 33.2763C52.2185 33.3359 51.9713 33.3892 51.6901 33.4361C51.4131 33.4787 51.1425 33.517 50.8783 33.5511C50.6184 33.581 50.4074 33.6065 50.2455 33.6278C49.8534 33.679 49.487 33.7621 49.1461 33.8771C48.8094 33.9879 48.5367 34.1562 48.3279 34.3821C48.1233 34.6037 48.0211 34.9062 48.0211 35.2898C48.0211 35.8139 48.2149 36.2102 48.6027 36.4787C48.9948 36.7429 49.4912 36.875 50.0921 36.875ZM56.9338 38V28.1818H58.3912V29.6648H58.4935C58.6725 29.179 58.9963 28.7848 59.4651 28.4822C59.9338 28.1797 60.4622 28.0284 61.0503 28.0284C61.1611 28.0284 61.2996 28.0305 61.4658 28.0348C61.632 28.0391 61.7577 28.0455 61.8429 28.054V29.5881C61.7918 29.5753 61.6746 29.5561 61.4914 29.5305C61.3124 29.5007 61.1228 29.4858 60.9225 29.4858C60.4452 29.4858 60.0191 29.5859 59.6441 29.7862C59.2733 29.9822 58.9793 30.255 58.762 30.6044C58.5489 30.9496 58.4424 31.3437 58.4424 31.7869V38H56.9338ZM67.1394 38.2045C66.219 38.2045 65.4263 37.9872 64.7616 37.5526C64.0968 37.1179 63.5854 36.5192 63.2275 35.7564C62.8695 34.9936 62.6905 34.1222 62.6905 33.142C62.6905 32.1449 62.8738 31.2649 63.2403 30.5021C63.611 29.7351 64.1266 29.1364 64.7871 28.706C65.4519 28.2713 66.2275 28.054 67.1138 28.054C67.8042 28.054 68.4263 28.1818 68.9803 28.4375C69.5343 28.6932 69.9881 29.0511 70.3418 29.5114C70.6955 29.9716 70.915 30.5085 71.0002 31.1222H69.4917C69.3766 30.6747 69.1209 30.2784 68.7246 29.9332C68.3326 29.5838 67.8042 29.4091 67.1394 29.4091C66.5513 29.4091 66.0357 29.5625 65.5925 29.8693C65.1536 30.1719 64.8106 30.6001 64.5634 31.1541C64.3205 31.7038 64.1991 32.3494 64.1991 33.0909C64.1991 33.8494 64.3184 34.5099 64.557 35.0724C64.7999 35.6349 65.1408 36.0717 65.5798 36.3828C66.0229 36.6939 66.5428 36.8494 67.1394 36.8494C67.5315 36.8494 67.8873 36.7812 68.2069 36.6449C68.5265 36.5085 68.7971 36.3125 69.0187 36.0568C69.2403 35.8011 69.3979 35.4943 69.4917 35.1364H71.0002C70.915 35.7159 70.704 36.2379 70.3674 36.7024C70.035 37.1626 69.594 37.5291 69.0442 37.8018C68.4988 38.0703 67.8638 38.2045 67.1394 38.2045ZM74.5325 32.0938V38H73.024V24.9091H74.5325V29.7159H74.6603C74.8904 29.2088 75.2356 28.8061 75.6958 28.5078C76.1603 28.2053 76.7782 28.054 77.5495 28.054C78.2186 28.054 78.8045 28.1882 79.3073 28.4567C79.8102 28.7209 80.2001 29.1278 80.4771 29.6776C80.7583 30.223 80.899 30.9176 80.899 31.7614V38H79.3904V31.8636C79.3904 31.0838 79.188 30.4808 78.7832 30.0547C78.3826 29.6243 77.8265 29.4091 77.1149 29.4091C76.6206 29.4091 76.1774 29.5135 75.7853 29.7223C75.3975 29.9311 75.0907 30.2358 74.8649 30.6364C74.6433 31.0369 74.5325 31.5227 74.5325 32.0938ZM92.3213 41.8864C91.5926 41.8864 90.9662 41.7926 90.442 41.6051C89.9179 41.4219 89.4811 41.179 89.1317 40.8764C88.7865 40.5781 88.5116 40.2585 88.3071 39.9176L89.5088 39.0739C89.6452 39.2528 89.8177 39.4574 90.0266 39.6875C90.2354 39.9219 90.5209 40.1243 90.8831 40.2947C91.2496 40.4695 91.729 40.5568 92.3213 40.5568C93.1139 40.5568 93.768 40.3651 94.2837 39.9815C94.7993 39.598 95.0571 38.9972 95.0571 38.179V36.1847H94.9293C94.8185 36.3636 94.6608 36.5852 94.4562 36.8494C94.256 37.1094 93.9662 37.3416 93.5869 37.5462C93.2119 37.7464 92.7048 37.8466 92.0656 37.8466C91.273 37.8466 90.5614 37.6591 89.9307 37.2841C89.3043 36.9091 88.8078 36.3636 88.4413 35.6477C88.0791 34.9318 87.898 34.0625 87.898 33.0398C87.898 32.0341 88.0748 31.1584 88.4285 30.4126C88.7822 29.6626 89.2744 29.0831 89.9051 28.674C90.5358 28.2607 91.2645 28.054 92.0912 28.054C92.7304 28.054 93.2375 28.1605 93.6125 28.3736C93.9918 28.5824 94.2815 28.821 94.4818 29.0895C94.6864 29.3537 94.844 29.571 94.9548 29.7415H95.1082V28.1818H96.5656V38.2812C96.5656 39.125 96.3739 39.8111 95.9903 40.3395C95.6111 40.8722 95.0997 41.2621 94.4562 41.5092C93.817 41.7607 93.1054 41.8864 92.3213 41.8864ZM92.2702 36.4915C92.8753 36.4915 93.3866 36.353 93.8043 36.076C94.2219 35.799 94.5393 35.4006 94.7567 34.8807C94.974 34.3608 95.0827 33.7386 95.0827 33.0142C95.0827 32.3068 94.9761 31.6825 94.7631 31.1413C94.55 30.6001 94.2346 30.1761 93.817 29.8693C93.3994 29.5625 92.8838 29.4091 92.2702 29.4091C91.631 29.4091 91.0983 29.571 90.6721 29.8949C90.2503 30.2187 89.9328 30.6534 89.7197 31.1989C89.5109 31.7443 89.4065 32.3494 89.4065 33.0142C89.4065 33.696 89.5131 34.299 89.7261 34.8232C89.9435 35.343 90.2631 35.7521 90.6849 36.0504C91.1111 36.3445 91.6395 36.4915 92.2702 36.4915ZM99.1455 38V28.1818H100.603V29.6648H100.705C100.884 29.179 101.208 28.7848 101.677 28.4822C102.145 28.1797 102.674 28.0284 103.262 28.0284C103.373 28.0284 103.511 28.0305 103.677 28.0348C103.844 28.0391 103.969 28.0455 104.055 28.054V29.5881C104.003 29.5753 103.886 29.5561 103.703 29.5305C103.524 29.5007 103.334 29.4858 103.134 29.4858C102.657 29.4858 102.231 29.5859 101.856 29.7862C101.485 29.9822 101.191 30.255 100.974 30.6044C100.761 30.9496 100.654 31.3437 100.654 31.7869V38H99.1455ZM109.351 38.2045C108.465 38.2045 107.687 37.9936 107.018 37.5717C106.353 37.1499 105.833 36.5597 105.458 35.8011C105.088 35.0426 104.902 34.1562 104.902 33.142C104.902 32.1193 105.088 31.2266 105.458 30.4638C105.833 29.701 106.353 29.1087 107.018 28.6868C107.687 28.2649 108.465 28.054 109.351 28.054C110.237 28.054 111.013 28.2649 111.678 28.6868C112.347 29.1087 112.867 29.701 113.237 30.4638C113.612 31.2266 113.8 32.1193 113.8 33.142C113.8 34.1562 113.612 35.0426 113.237 35.8011C112.867 36.5597 112.347 37.1499 111.678 37.5717C111.013 37.9936 110.237 38.2045 109.351 38.2045ZM109.351 36.8494C110.024 36.8494 110.578 36.6768 111.013 36.3317C111.448 35.9865 111.769 35.5327 111.978 34.9702C112.187 34.4077 112.291 33.7983 112.291 33.142C112.291 32.4858 112.187 31.8743 111.978 31.3075C111.769 30.7408 111.448 30.2827 111.013 29.9332C110.578 29.5838 110.024 29.4091 109.351 29.4091C108.678 29.4091 108.124 29.5838 107.689 29.9332C107.254 30.2827 106.933 30.7408 106.724 31.3075C106.515 31.8743 106.411 32.4858 106.411 33.142C106.411 33.7983 106.515 34.4077 106.724 34.9702C106.933 35.5327 107.254 35.9865 107.689 36.3317C108.124 36.6768 108.678 36.8494 109.351 36.8494ZM119.91 38.2045C118.989 38.2045 118.197 37.9872 117.532 37.5526C116.867 37.1179 116.356 36.5192 115.998 35.7564C115.64 34.9936 115.461 34.1222 115.461 33.142C115.461 32.1449 115.644 31.2649 116.011 30.5021C116.381 29.7351 116.897 29.1364 117.558 28.706C118.222 28.2713 118.998 28.054 119.884 28.054C120.575 28.054 121.197 28.1818 121.751 28.4375C122.305 28.6932 122.759 29.0511 123.112 29.5114C123.466 29.9716 123.685 30.5085 123.771 31.1222H122.262C122.147 30.6747 121.891 30.2784 121.495 29.9332C121.103 29.5838 120.575 29.4091 119.91 29.4091C119.322 29.4091 118.806 29.5625 118.363 29.8693C117.924 30.1719 117.581 30.6001 117.334 31.1541C117.091 31.7038 116.969 32.3494 116.969 33.0909C116.969 33.8494 117.089 34.5099 117.327 35.0724C117.57 35.6349 117.911 36.0717 118.35 36.3828C118.793 36.6939 119.313 36.8494 119.91 36.8494C120.302 36.8494 120.658 36.7812 120.977 36.6449C121.297 36.5085 121.567 36.3125 121.789 36.0568C122.011 35.8011 122.168 35.4943 122.262 35.1364H123.771C123.685 35.7159 123.474 36.2379 123.138 36.7024C122.805 37.1626 122.364 37.5291 121.815 37.8018C121.269 38.0703 120.634 38.2045 119.91 38.2045ZM129.911 38.2045C128.965 38.2045 128.149 37.9957 127.463 37.5781C126.781 37.1562 126.255 36.5682 125.884 35.8139C125.517 35.0554 125.334 34.1733 125.334 33.1676C125.334 32.1619 125.517 31.2756 125.884 30.5085C126.255 29.7372 126.77 29.1364 127.431 28.706C128.095 28.2713 128.871 28.054 129.757 28.054C130.269 28.054 130.774 28.1392 131.272 28.3097C131.771 28.4801 132.225 28.7571 132.634 29.1406C133.043 29.5199 133.369 30.0227 133.612 30.6491C133.855 31.2756 133.976 32.0469 133.976 32.9631V33.6023H126.408V32.2983H132.442C132.442 31.7443 132.331 31.25 132.11 30.8153C131.892 30.3807 131.581 30.0376 131.176 29.7862C130.776 29.5348 130.303 29.4091 129.757 29.4091C129.157 29.4091 128.637 29.5582 128.198 29.8565C127.763 30.1506 127.429 30.5341 127.194 31.0071C126.96 31.4801 126.843 31.9872 126.843 32.5284V33.3977C126.843 34.1392 126.97 34.7678 127.226 35.2834C127.486 35.7947 127.846 36.1847 128.306 36.4531C128.767 36.7173 129.301 36.8494 129.911 36.8494C130.307 36.8494 130.665 36.794 130.985 36.6832C131.309 36.5682 131.588 36.3977 131.822 36.1719C132.056 35.9418 132.238 35.6562 132.365 35.3153L133.823 35.7244C133.669 36.2188 133.412 36.6534 133.049 37.0284C132.687 37.3991 132.24 37.6889 131.707 37.8977C131.174 38.1023 130.576 38.2045 129.911 38.2045ZM136.089 38V28.1818H137.547V29.6648H137.649C137.828 29.179 138.152 28.7848 138.621 28.4822C139.089 28.1797 139.618 28.0284 140.206 28.0284C140.317 28.0284 140.455 28.0305 140.621 28.0348C140.788 28.0391 140.913 28.0455 140.998 28.054V29.5881C140.947 29.5753 140.83 29.5561 140.647 29.5305C140.468 29.5007 140.278 29.4858 140.078 29.4858C139.601 29.4858 139.175 29.5859 138.8 29.7862C138.429 29.9822 138.135 30.255 137.918 30.6044C137.704 30.9496 137.598 31.3437 137.598 31.7869V38H136.089ZM142.605 38V28.1818H144.114V38H142.605ZM143.372 26.5455C143.078 26.5455 142.825 26.4453 142.612 26.245C142.403 26.0447 142.298 25.804 142.298 25.5227C142.298 25.2415 142.403 25.0007 142.612 24.8004C142.825 24.6001 143.078 24.5 143.372 24.5C143.666 24.5 143.918 24.6001 144.126 24.8004C144.34 25.0007 144.446 25.2415 144.446 25.5227C144.446 25.804 144.34 26.0447 144.126 26.245C143.918 26.4453 143.666 26.5455 143.372 26.5455ZM150.812 38.2045C149.866 38.2045 149.05 37.9957 148.363 37.5781C147.682 37.1562 147.155 36.5682 146.785 35.8139C146.418 35.0554 146.235 34.1733 146.235 33.1676C146.235 32.1619 146.418 31.2756 146.785 30.5085C147.155 29.7372 147.671 29.1364 148.332 28.706C148.996 28.2713 149.772 28.054 150.658 28.054C151.17 28.054 151.675 28.1392 152.173 28.3097C152.672 28.4801 153.126 28.7571 153.535 29.1406C153.944 29.5199 154.27 30.0227 154.513 30.6491C154.756 31.2756 154.877 32.0469 154.877 32.9631V33.6023H147.309V32.2983H153.343C153.343 31.7443 153.232 31.25 153.01 30.8153C152.793 30.3807 152.482 30.0376 152.077 29.7862C151.677 29.5348 151.204 29.4091 150.658 29.4091C150.057 29.4091 149.537 29.5582 149.099 29.8565C148.664 30.1506 148.329 30.5341 148.095 31.0071C147.861 31.4801 147.743 31.9872 147.743 32.5284V33.3977C147.743 34.1392 147.871 34.7678 148.127 35.2834C148.387 35.7947 148.747 36.1847 149.207 36.4531C149.667 36.7173 150.202 36.8494 150.812 36.8494C151.208 36.8494 151.566 36.794 151.885 36.6832C152.209 36.5682 152.488 36.3977 152.723 36.1719C152.957 35.9418 153.138 35.6562 153.266 35.3153L154.724 35.7244C154.57 36.2188 154.312 36.6534 153.95 37.0284C153.588 37.3991 153.14 37.6889 152.608 37.8977C152.075 38.1023 151.476 38.2045 150.812 38.2045ZM163.945 30.3807L162.59 30.7642C162.504 30.5384 162.379 30.3189 162.213 30.1058C162.051 29.8885 161.829 29.7095 161.548 29.5689C161.266 29.4283 160.906 29.358 160.467 29.358C159.867 29.358 159.366 29.4964 158.965 29.7734C158.569 30.0462 158.371 30.3935 158.371 30.8153C158.371 31.1903 158.507 31.4865 158.78 31.7038C159.053 31.9212 159.479 32.1023 160.058 32.2472L161.516 32.6051C162.394 32.8182 163.048 33.1442 163.478 33.5831C163.909 34.0178 164.124 34.5781 164.124 35.2642C164.124 35.8267 163.962 36.3295 163.638 36.7727C163.318 37.2159 162.871 37.5653 162.296 37.821C161.72 38.0767 161.051 38.2045 160.289 38.2045C159.287 38.2045 158.458 37.9872 157.802 37.5526C157.146 37.1179 156.73 36.483 156.556 35.6477L157.987 35.2898C158.124 35.8182 158.382 36.2145 158.761 36.4787C159.144 36.7429 159.645 36.875 160.263 36.875C160.966 36.875 161.524 36.7259 161.938 36.4276C162.355 36.125 162.564 35.7628 162.564 35.3409C162.564 35 162.445 34.7145 162.206 34.4844C161.967 34.25 161.601 34.0753 161.107 33.9602L159.47 33.5767C158.571 33.3636 157.911 33.0334 157.489 32.5859C157.071 32.1342 156.862 31.5696 156.862 30.892C156.862 30.3381 157.018 29.848 157.329 29.4219C157.644 28.9957 158.073 28.6612 158.614 28.4183C159.159 28.1754 159.777 28.054 160.467 28.054C161.439 28.054 162.202 28.267 162.756 28.6932C163.314 29.1193 163.71 29.6818 163.945 30.3807Z" fill="#828282"/>
<rect width="85" height="61" transform="translate(630 1)" fill="url(#paint0_linear_1_405)"/>
<path d="M671.333 44C663.8 44 657.667 37.8667 657.667 30.3334C657.667 22.8 663.8 16.6667 671.333 16.6667C678.867 16.6667 685 22.8 685 30.3334C685 37.8667 678.867 44 671.333 44ZM671.333 18.6667C664.893 18.6667 659.667 23.9067 659.667 30.3334C659.667 36.76 664.893 42 671.333 42C677.773 42 683 36.76 683 30.3334C683 23.9067 677.773 18.6667 671.333 18.6667Z" fill="white"/>
<path d="M685.333 45.3333C685.08 45.3333 684.827 45.24 684.627 45.04L681.96 42.3733C681.573 41.9867 681.573 41.3466 681.96 40.96C682.347 40.5733 682.987 40.5733 683.373 40.96L686.04 43.6266C686.427 44.0133 686.427 44.6533 686.04 45.04C685.84 45.24 685.587 45.3333 685.333 45.3333Z" fill="white"/>
<defs>
<linearGradient id="paint0_linear_1_405" x1="103.522" y1="81.3333" x2="-25.1627" y2="45.6246" gradientUnits="userSpaceOnUse">
<stop stop-color="#270096"/>
<stop offset="1" stop-color="#EA00B7"/>
</linearGradient>
</defs>
</svg>
